<svg width="512" height="512" viewBox="0 0 512 512" fill="none" xmlns="http://www.w3.org/2000/svg">
<g clip-path="url(#clip0)">
<path d="M191.765 298.666C168.235 298.666 149.099 279.53 149.099 256C149.099 232.469 168.235 213.333 191.765 213.333C215.296 213.333 234.432 232.469 234.432 256C234.432 279.53 215.296 298.666 191.765 298.666ZM191.765 245.333C185.877 245.333 181.099 250.112 181.099 256C181.099 261.888 185.877 266.666 191.765 266.666C197.653 266.666 202.432 261.888 202.432 256C202.432 250.112 197.653 245.333 191.765 245.333Z" fill="#F44336"/>
<path d="M389.333 128H336C327.168 128 320 120.832 320 112V58.6665C320 54.4212 321.685 50.3466 324.693 47.3599L367.36 4.69322C371.947 0.127885 378.837 -1.25878 384.789 1.21589C390.763 3.69055 394.667 9.53589 394.667 15.9999V53.3332H432C438.464 53.3332 444.309 57.2372 446.784 63.2106C449.259 69.1839 447.893 76.0746 443.307 80.6399L400.64 123.307C397.653 126.315 393.579 128 389.333 128Z" fill="#00629B"/>
<path d="M373.333 512C296.875 512 234.667 449.792 234.667 373.334C234.667 296.875 296.875 234.667 373.333 234.667C449.792 234.667 512 296.875 512 373.334C512 449.792 449.792 512 373.333 512Z" fill="#00629B"/>
<path d="M192.17 448C85.9091 448 -0.234863 361.877 -0.234863 256C-0.234863 150.123 85.9091 64 191.765 64C243.05 64 291.264 83.9893 327.509 120.256C343.936 136.683 357.226 155.947 367.018 177.557C370.666 185.621 367.082 195.093 359.04 198.741C350.933 202.347 341.504 198.784 337.856 190.763C329.664 172.672 318.57 156.565 304.874 142.891C274.666 112.64 234.496 96 191.765 96C103.53 96 31.7651 167.765 31.7651 256C31.7651 344.235 103.53 416 191.765 416C200.597 416 207.978 423.168 207.978 432C207.978 440.832 201.002 448 192.17 448V448Z" fill="black"/>
<path d="M181.931 372.694C181.419 372.694 180.928 372.672 180.416 372.63C119.936 366.912 74.3252 316.779 74.3252 255.979C74.3252 191.296 126.955 138.667 191.637 138.667C222.827 138.667 252.309 150.806 274.624 172.886C281.963 180.246 288.299 188.608 293.525 197.867C297.877 205.568 295.147 215.318 287.445 219.67C279.765 223.958 269.995 221.291 265.643 213.611C261.845 206.87 257.259 200.79 252.032 195.563C235.84 179.542 214.357 170.667 191.637 170.667C144.597 170.667 106.325 208.939 106.325 255.979C106.325 300.16 139.456 336.598 183.403 340.758C192.213 341.59 198.656 349.398 197.824 358.187C197.056 366.486 190.101 372.694 181.931 372.694Z" fill="black"/>
<path d="M192 272C187.904 272 183.808 270.443 180.693 267.307C174.443 261.056 174.443 250.923 180.693 244.672L319.36 106.005C325.611 99.7547 335.744 99.7547 341.995 106.005C348.245 112.256 348.245 122.389 341.995 128.64L203.328 267.307C200.192 270.443 196.096 272 192 272V272Z" fill="black"/>
<path d="M389.333 128H336C327.168 128 320 120.832 320 112V58.6669C320 54.4216 321.685 50.3469 324.693 47.3603L367.36 4.69359C371.925 0.106919 378.837 -1.21575 384.789 1.21625C390.763 3.69092 394.667 9.53625 394.667 16.0003V53.3336H432C438.464 53.3336 444.309 57.2376 446.784 63.2109C449.259 69.1843 447.893 76.0749 443.307 80.6403L400.64 123.307C397.653 126.315 393.579 128 389.333 128ZM352 96.0003H382.699L393.365 85.3336H378.667C369.835 85.3336 362.667 78.1656 362.667 69.3336V54.6349L352 65.3016V96.0003Z" fill="black"/>
<path d="M373.333 512C296.875 512 234.667 449.792 234.667 373.334C234.667 296.875 296.875 234.667 373.333 234.667C449.792 234.667 512 296.875 512 373.334C512 449.792 449.792 512 373.333 512ZM373.333 266.667C314.517 266.667 266.667 314.518 266.667 373.334C266.667 432.15 314.517 480 373.333 480C432.149 480 480 432.15 480 373.334C480 314.518 432.149 266.667 373.333 266.667Z" fill="black"/>
<path d="M352 426.666C348.309 426.666 344.597 425.386 341.589 422.805L304.256 390.805C297.557 385.045 296.768 374.954 302.528 368.234C308.288 361.514 318.357 360.746 325.099 366.506L350.763 388.501L409.621 325.077C415.637 318.592 425.749 318.25 432.235 324.245C438.72 330.261 439.083 340.394 433.088 346.88L363.755 421.546C360.576 424.938 356.288 426.666 352 426.666V426.666Z" fill="black"/>
</g>
<defs>
<clipPath id="clip0">
<rect width="512" height="512" fill="white"/>
</clipPath>
</defs>
</svg>
