<svg width="512" height="512" viewBox="0 0 512 512" fill="none" xmlns="http://www.w3.org/2000/svg">
<path d="M192 240.64L144.64 288L76.64 217.28L54.32 239.52L32 128L143.52 150.32L121.28 172.64L192 240.64Z" fill="#00629B"/>
<path d="M256 32L320 128H288V224H224V128H192L256 32Z" fill="#00629B"/>
<path d="M480 128L457.68 239.52L435.36 217.28L367.36 288L320 240.64L390.72 172.64L368.48 150.32L480 128Z" fill="#00629B"/>
<path d="M32 344C40.8366 344 48 336.837 48 328C48 319.163 40.8366 312 32 312C23.1634 312 16 319.163 16 328C16 336.837 23.1634 344 32 344Z" fill="#FCD770"/>
<path d="M32 496C40.8366 496 48 488.837 48 480C48 471.163 40.8366 464 32 464C23.1634 464 16 471.163 16 480C16 488.837 23.1634 496 32 496Z" fill="#FCD770"/>
<path d="M32 48C40.8366 48 48 40.8366 48 32C48 23.1634 40.8366 16 32 16C23.1634 16 16 23.1634 16 32C16 40.8366 23.1634 48 32 48Z" fill="#FCD770"/>
<path d="M480 48C488.837 48 496 40.8366 496 32C496 23.1634 488.837 16 480 16C471.163 16 464 23.1634 464 32C464 40.8366 471.163 48 480 48Z" fill="#FCD770"/>
<path d="M480 344C488.837 344 496 336.837 496 328C496 319.163 488.837 312 480 312C471.163 312 464 319.163 464 328C464 336.837 471.163 344 480 344Z" fill="#FCD770"/>
<path d="M480 496C488.837 496 496 488.837 496 480C496 471.163 488.837 464 480 464C471.163 464 464 471.163 464 480C464 488.837 471.163 496 480 496Z" fill="#FCD770"/>
<path d="M240 496H152V472C152 443.28 163.68 417.28 182.48 398.48C183.84 397.12 185.28 395.68 186.8 394.4L192 424L216 440L200 456L240 496Z" fill="#F44336"/>
<path d="M360 472V496H272L312 456L296 440L320 424L325.2 394.4C346.56 413.44 360 441.12 360 472Z" fill="#F44336"/>
<path d="M216.32 375.84L256 496H240L200 456L216 440L192 424L186.8 394.4C195.44 386.64 205.44 380.4 216.32 375.84V375.84Z" fill="#F44336"/>
<path d="M296 440L312 456L272 496H256L295.68 375.84C306.56 380.4 316.56 386.64 325.2 394.4L320 424L296 440Z" fill="#F44336"/>
<path d="M295.68 375.84L256 496L216.32 375.84C228.56 370.8 241.92 368 256 368C270.08 368 283.44 370.8 295.68 375.84V375.84Z" fill="#CCD1D9"/>
<path d="M256 368C286.928 368 312 342.928 312 312C312 281.072 286.928 256 256 256C225.072 256 200 281.072 200 312C200 342.928 225.072 368 256 368Z" fill="#F0D0B4"/>
<path d="M290.832 365.616C308.36 354.192 320 334.44 320 312C320 276.712 291.288 248 256 248C220.712 248 192 276.712 192 312C192 334.44 203.64 354.192 221.168 365.616C176.424 380.304 144 422.408 144 472V504H368V472C368 422.408 335.576 380.304 290.832 365.616ZM300.688 456L268.688 488H267.072L300.44 386.984C306.168 389.992 311.568 393.528 316.544 397.584L312.72 419.248L283.448 438.76L300.688 456ZM199.288 419.24L195.464 397.576C200.44 393.52 205.84 389.984 211.568 386.976L244.936 488H243.32L211.32 456L228.568 438.76L199.288 419.24ZM208 312C208 285.528 229.528 264 256 264C282.472 264 304 285.528 304 312C304 338.472 282.472 360 256 360C229.528 360 208 338.472 208 312V312ZM285.648 380.736L256 470.488L226.36 380.736C235.704 377.696 245.656 376 256 376C266.352 376 276.296 377.696 285.648 380.736ZM160 472C160 449.024 168.136 427.92 181.648 411.376L184.712 428.76L203.44 441.248L188.688 456L220.688 488H160V472ZM352 488H291.312L323.312 456L308.56 441.24L327.288 428.752L330.352 411.368C343.864 427.92 352 449.024 352 472V488Z" fill="black"/>
<path d="M216 232H296V136H334.952L256 17.5762L177.048 136H216V232ZM206.952 120L256 46.4242L305.048 120H280V216H232V120H206.952Z" fill="black"/>
<path d="M21.7998 117.8L49.3918 255.776L76.5038 228.664L144.552 299.424L203.416 240.56L132.656 172.512L159.768 145.4L21.7998 117.8ZM180.576 240.784L144.784 276.576L76.7358 205.816L59.2238 223.32L42.1998 138.2L127.328 155.224L109.824 172.736L180.576 240.784Z" fill="black"/>
<path d="M308.576 240.56L367.44 299.424L435.488 228.664L462.6 255.776L490.192 117.8L352.216 145.392L379.328 172.504L308.576 240.56ZM469.8 138.2L452.776 223.328L435.264 205.824L367.216 276.584L331.424 240.792L402.184 172.744L384.68 155.232L469.8 138.2Z" fill="black"/>
<path d="M32 56C45.232 56 56 45.232 56 32C56 18.768 45.232 8 32 8C18.768 8 8 18.768 8 32C8 45.232 18.768 56 32 56ZM32 24C36.408 24 40 27.592 40 32C40 36.408 36.408 40 32 40C27.592 40 24 36.408 24 32C24 27.592 27.592 24 32 24Z" fill="black"/>
<path d="M95.5747 106.912L106.887 95.6001L117.633 106.347L106.321 117.659L95.5747 106.912Z" fill="black"/>
<path d="M72.9595 84.2881L84.2715 72.9761L95.5835 84.2881L84.2715 95.6001L72.9595 84.2881Z" fill="black"/>
<path d="M50.3335 61.6562L61.6455 50.3442L72.9575 61.6562L61.6455 72.9683L50.3335 61.6562Z" fill="black"/>
<path d="M32 456C18.768 456 8 466.768 8 480C8 493.232 18.768 504 32 504C45.232 504 56 493.232 56 480C56 466.768 45.232 456 32 456ZM32 488C27.592 488 24 484.408 24 480C24 475.592 27.592 472 32 472C36.408 472 40 475.592 40 480C40 484.408 36.408 488 32 488Z" fill="black"/>
<path d="M72.9199 427.673L84.2319 416.361L95.5439 427.673L84.2319 438.985L72.9199 427.673Z" fill="black"/>
<path d="M50.2881 450.307L61.6001 438.995L72.9121 450.307L61.6001 461.619L50.2881 450.307Z" fill="black"/>
<path d="M95.5444 405.058L106.291 394.311L117.603 405.623L106.856 416.37L95.5444 405.058Z" fill="black"/>
<path d="M480 456C466.768 456 456 466.768 456 480C456 493.232 466.768 504 480 504C493.232 504 504 493.232 504 480C504 466.768 493.232 456 480 456ZM480 488C475.592 488 472 484.408 472 480C472 475.592 475.592 472 480 472C484.408 472 488 475.592 488 480C488 484.408 484.408 488 480 488Z" fill="black"/>
<path d="M416.305 427.712L427.617 416.4L438.929 427.712L427.617 439.024L416.305 427.712Z" fill="black"/>
<path d="M394.26 405.659L405.572 394.347L416.319 405.094L405.007 416.406L394.26 405.659Z" fill="black"/>
<path d="M438.938 450.344L450.25 439.032L461.562 450.344L450.25 461.656L438.938 450.344Z" fill="black"/>
<path d="M480 56C493.232 56 504 45.232 504 32C504 18.768 493.232 8 480 8C466.768 8 456 18.768 456 32C456 45.232 466.768 56 480 56ZM480 24C484.408 24 488 27.592 488 32C488 36.408 484.408 40 480 40C475.592 40 472 36.408 472 32C472 27.592 475.592 24 480 24Z" fill="black"/>
<path d="M438.976 61.7012L450.288 50.3892L461.6 61.7012L450.288 73.0132L438.976 61.7012Z" fill="black"/>
<path d="M416.352 84.3271L427.664 73.0151L438.976 84.3271L427.664 95.6391L416.352 84.3271Z" fill="black"/>
<path d="M394.291 106.371L405.037 95.6247L416.349 106.937L405.603 117.683L394.291 106.371Z" fill="black"/>
<path d="M480 304C466.768 304 456 314.768 456 328C456 341.232 466.768 352 480 352C493.232 352 504 341.232 504 328C504 314.768 493.232 304 480 304ZM480 336C475.592 336 472 332.408 472 328C472 323.592 475.592 320 480 320C484.408 320 488 323.592 488 328C488 332.408 484.408 336 480 336Z" fill="black"/>
<path d="M424 320H440V336H424V320Z" fill="black"/>
<path d="M392 320H408V336H392V320Z" fill="black"/>
<path d="M360 320H376V336H360V320Z" fill="black"/>
<path d="M32 352C45.232 352 56 341.232 56 328C56 314.768 45.232 304 32 304C18.768 304 8 314.768 8 328C8 341.232 18.768 352 32 352ZM32 320C36.408 320 40 323.592 40 328C40 332.408 36.408 336 32 336C27.592 336 24 332.408 24 328C24 323.592 27.592 320 32 320Z" fill="black"/>
<path d="M72 320H88V336H72V320Z" fill="black"/>
<path d="M104 320H120V336H104V320Z" fill="black"/>
<path d="M136 320H152V336H136V320Z" fill="black"/>
</svg>
